<?xml version="1.0" encoding="UTF-8"?>
<!DOCTYPE svg PUBLIC "-//W3C//DTD SVG 1.1//EN" "http://www.w3.org/Graphics/SVG/1.1/DTD/svg11.dtd">
<svg xmlns="http://www.w3.org/2000/svg" version="1.1" width="2772px" height="751px" style="shape-rendering:geometricPrecision; text-rendering:geometricPrecision; image-rendering:optimizeQuality; fill-rule:evenodd; clip-rule:evenodd" xmlns:xlink="http://www.w3.org/1999/xlink">
<g><path style="opacity:0.977" fill="#fefffe" d="M 663.5,256.5 C 677.5,256.5 691.5,256.5 705.5,256.5C 705.5,318.833 705.5,381.167 705.5,443.5C 694.5,443.5 683.5,443.5 672.5,443.5C 672.666,434.494 672.5,425.494 672,416.5C 661.632,437.941 644.466,448.608 620.5,448.5C 582.394,446.23 560.227,426.23 554,388.5C 550.151,364.036 555.151,341.703 569,321.5C 591.792,297.717 618.292,292.55 648.5,306C 654.289,309.455 659.122,313.955 663,319.5C 663.5,298.503 663.667,277.503 663.5,256.5 Z M 624.5,333.5 C 645.057,332.008 658.224,341.008 664,360.5C 664.667,368.833 664.667,377.167 664,385.5C 657.627,407.444 643.127,416.278 620.5,412C 606.61,407.442 598.444,397.942 596,383.5C 591.895,358.677 601.395,342.01 624.5,333.5 Z"/></g>
<g><path style="opacity:0.918" fill="#fefffe" d="M 1454.5,256.5 C 1459.5,256.5 1464.5,256.5 1469.5,256.5C 1469.33,282.835 1469.5,309.169 1470,335.5C 1481.5,314.908 1499.17,304.575 1523,304.5C 1547.02,305.004 1565.35,315.337 1578,335.5C 1592.22,363.313 1591.89,390.979 1577,418.5C 1557.11,445.796 1530.94,454.296 1498.5,444C 1484.41,437.582 1473.91,427.416 1467,413.5C 1466.5,423.494 1466.33,433.494 1466.5,443.5C 1462.5,443.5 1458.5,443.5 1454.5,443.5C 1454.5,381.167 1454.5,318.833 1454.5,256.5 Z M 1515.5,317.5 C 1548.09,317.384 1567.26,333.384 1573,365.5C 1576.09,388.891 1569.26,408.724 1552.5,425C 1530.65,439.122 1508.99,438.789 1487.5,424C 1477.01,414.851 1470.84,403.351 1469,389.5C 1468.33,380.833 1468.33,372.167 1469,363.5C 1473.78,337.222 1489.28,321.889 1515.5,317.5 Z"/></g>
<g><path style="opacity:0.942" fill="#fefffe" d="M 2041.5,256.5 C 2046.17,256.5 2050.83,256.5 2055.5,256.5C 2055.5,318.833 2055.5,381.167 2055.5,443.5C 2051.83,443.5 2048.17,443.5 2044.5,443.5C 2044.67,433.494 2044.5,423.494 2044,413.5C 2030.91,438.634 2010.08,450.134 1981.5,448C 1951.86,443.262 1933.02,426.428 1925,397.5C 1918.05,367.87 1924.88,342.036 1945.5,320C 1965.7,304.133 1988.04,300.466 2012.5,309C 2025.22,314.386 2034.72,323.219 2041,335.5C 2041.5,309.169 2041.67,282.835 2041.5,256.5 Z M 1983.5,317.5 C 2016.41,316.684 2035.91,332.35 2042,364.5C 2044.89,383.34 2041.22,400.673 2031,416.5C 2015.46,433.095 1996.63,438.595 1974.5,433C 1953.12,425.285 1940.96,410.118 1938,387.5C 1934.09,363.212 1941.26,343.045 1959.5,327C 1966.87,321.938 1974.87,318.772 1983.5,317.5 Z"/></g>
<g><path style="opacity:0.972" fill="#fefffe" d="M 799.5,297.5 C 842.425,297.261 867.592,318.261 875,360.5C 875.5,368.493 875.666,376.493 875.5,384.5C 841.5,384.5 807.5,384.5 773.5,384.5C 777.411,407.547 791.078,417.381 814.5,414C 823.404,412.415 830.071,407.748 834.5,400C 847.162,399.5 859.829,399.333 872.5,399.5C 866.355,425.144 850.355,440.978 824.5,447C 793.171,453.559 767.338,444.726 747,420.5C 735.057,401.862 730.724,381.529 734,359.5C 740.551,322.444 762.384,301.777 799.5,297.5 Z M 796.5,332.5 C 818.515,329.539 831.515,338.873 835.5,360.5C 814.833,360.5 794.167,360.5 773.5,360.5C 775.428,346.256 783.094,336.923 796.5,332.5 Z"/></g>
<g><path style="opacity:0.972" fill="#fefffe" d="M 959.5,297.5 C 1003.82,297.656 1028.99,319.656 1035,363.5C 1035.5,370.492 1035.67,377.492 1035.5,384.5C 1001.17,384.333 966.832,384.5 932.5,385C 937.177,407.185 950.844,416.852 973.5,414C 982.687,412.576 989.687,407.909 994.5,400C 1007.16,399.5 1019.83,399.333 1032.5,399.5C 1026.32,425.176 1010.32,441.01 984.5,447C 954.821,453.13 929.654,445.297 909,423.5C 895.098,404.008 890.098,382.342 894,358.5C 900.975,322.02 922.808,301.687 959.5,297.5 Z M 956.5,332.5 C 977.977,329.396 990.977,338.396 995.5,359.5C 974.844,360.5 954.177,360.833 933.5,360.5C 935.393,346.286 943.06,336.952 956.5,332.5 Z"/></g>
<g><path style="opacity:0.969" fill="#fefffe" d="M 309.5,298.5 C 330.951,296.282 350.284,301.448 367.5,314C 376.213,322.628 380.547,333.128 380.5,345.5C 368.162,345.667 355.829,345.5 343.5,345C 340.694,336.252 334.694,331.252 325.5,330C 315.166,327.622 306.332,330.122 299,337.5C 297.574,342.757 298.741,347.257 302.5,351C 306.981,352.954 311.648,354.287 316.5,355C 335.687,354.964 353.353,359.964 369.5,370C 385.52,385.444 388.687,403.277 379,423.5C 370.63,435.614 359.13,443.114 344.5,446C 325.23,449.925 306.23,448.925 287.5,443C 268.007,435.515 257.674,421.348 256.5,400.5C 268.851,400.168 281.185,400.501 293.5,401.5C 296.792,410.952 303.458,416.119 313.5,417C 323.286,418.545 332.619,417.212 341.5,413C 347.779,407.367 348.112,401.367 342.5,395C 339.618,393.392 336.618,392.059 333.5,391C 323.55,389.307 313.55,387.974 303.5,387C 268.927,381.437 255.427,361.604 263,327.5C 268.225,316.609 276.392,308.775 287.5,304C 294.823,301.575 302.157,299.742 309.5,298.5 Z"/></g>
<g><path style="opacity:0.974" fill="#fefffe" d="M 1141.5,298.5 C 1174.07,296.685 1196.57,310.685 1209,340.5C 1210.65,345.754 1211.98,351.087 1213,356.5C 1213.88,369.542 1213.54,382.542 1212,395.5C 1204.42,428.915 1183.59,446.582 1149.5,448.5C 1130.97,449.062 1115.81,442.395 1104,428.5C 1103.5,450.831 1103.33,473.164 1103.5,495.5C 1089.5,495.5 1075.5,495.5 1061.5,495.5C 1061.5,431.167 1061.5,366.833 1061.5,302.5C 1072.5,302.5 1083.5,302.5 1094.5,302.5C 1094.33,313.505 1094.5,324.505 1095,335.5C 1103.42,314.213 1118.92,301.88 1141.5,298.5 Z M 1132.5,333.5 C 1153.65,332.815 1166.48,342.815 1171,363.5C 1174.27,380.562 1169.77,395.062 1157.5,407C 1136.99,417.966 1119.83,414.133 1106,395.5C 1104.71,392.595 1103.71,389.595 1103,386.5C 1102.33,378.167 1102.33,369.833 1103,361.5C 1107.2,346.127 1117.04,336.794 1132.5,333.5 Z"/></g>
<g><path style="opacity:0.97" fill="#fefffe" d="M 437.5,300.5 C 449.838,300.333 462.171,300.5 474.5,301C 493.267,302.132 508.434,309.965 520,324.5C 525.1,333.133 527.766,342.466 528,352.5C 528.5,382.832 528.667,413.165 528.5,443.5C 517.167,443.5 505.833,443.5 494.5,443.5C 494.666,436.159 494.5,428.826 494,421.5C 485.191,439.495 470.691,448.161 450.5,447.5C 414.257,446.764 397.424,428.43 400,392.5C 405.083,374.422 416.916,363.589 435.5,360C 439.147,359.226 442.814,358.559 446.5,358C 460.163,357.5 473.829,357.333 487.5,357.5C 487.569,341.574 479.569,334.241 463.5,335.5C 447.177,336.448 430.844,337.115 414.5,337.5C 414.5,325.833 414.5,314.167 414.5,302.5C 422.333,302.063 430,301.396 437.5,300.5 Z M 457.5,380.5 C 467.5,380.5 477.5,380.5 487.5,380.5C 487.666,386.509 487.499,392.509 487,398.5C 484.238,411.648 476.071,418.314 462.5,418.5C 443.311,416.447 437.144,406.447 444,388.5C 447.696,384.268 452.196,381.602 457.5,380.5 Z"/></g>
<g><path style="opacity:0.975" fill="#fefffe" d="M 1268.5,300.5 C 1280.84,300.333 1293.17,300.5 1305.5,301C 1324.16,301.748 1339.33,309.248 1351,323.5C 1355.46,330.547 1358.13,338.214 1359,346.5C 1359.5,378.832 1359.67,411.165 1359.5,443.5C 1348.5,443.5 1337.5,443.5 1326.5,443.5C 1326.67,435.493 1326.5,427.493 1326,419.5C 1320.93,433.57 1311.09,442.403 1296.5,446C 1278.5,449.889 1261.83,446.889 1246.5,437C 1232.63,424.394 1227.8,408.894 1232,390.5C 1236.97,374.906 1247.47,365.072 1263.5,361C 1268.41,359.524 1273.41,358.524 1278.5,358C 1292.16,357.5 1305.83,357.333 1319.5,357.5C 1319.95,347.89 1315.95,341.057 1307.5,337C 1303.38,336.144 1299.21,335.644 1295,335.5C 1278.84,336.41 1262.68,337.077 1246.5,337.5C 1246.5,325.833 1246.5,314.167 1246.5,302.5C 1254,302.077 1261.33,301.41 1268.5,300.5 Z M 1289.5,380.5 C 1299.5,380.5 1309.5,380.5 1319.5,380.5C 1320.4,390.254 1318.9,399.587 1315,408.5C 1304.24,419.249 1292.08,421.082 1278.5,414C 1271.56,405.8 1270.73,396.966 1276,387.5C 1279.98,383.931 1284.48,381.597 1289.5,380.5 Z"/></g>
<g><path style="opacity:0.951" fill="#fefffe" d="M 1819.5,305.5 C 1855.32,300.293 1876.48,315.293 1883,350.5C 1883.5,381.498 1883.67,412.498 1883.5,443.5C 1878.83,443.5 1874.17,443.5 1869.5,443.5C 1869.67,414.498 1869.5,385.498 1869,356.5C 1864.19,326.39 1846.69,314.223 1816.5,320C 1798.01,326.161 1788.18,338.994 1787,358.5C 1786.5,386.831 1786.33,415.165 1786.5,443.5C 1781.83,443.5 1777.17,443.5 1772.5,443.5C 1772.5,398.5 1772.5,353.5 1772.5,308.5C 1776.5,308.5 1780.5,308.5 1784.5,308.5C 1784.33,317.173 1784.5,325.84 1785,334.5C 1791.86,319.128 1803.36,309.461 1819.5,305.5 Z"/></g>
<g><path style="opacity:0.926" fill="#fefffe" d="M 1648.5,307.5 C 1659.17,307.333 1669.84,307.5 1680.5,308C 1705,309.501 1718.83,322.334 1722,346.5C 1722.5,378.832 1722.67,411.165 1722.5,443.5C 1718.5,443.5 1714.5,443.5 1710.5,443.5C 1710.67,435.826 1710.5,428.159 1710,420.5C 1700.38,438.984 1685.05,447.984 1664,447.5C 1628.07,445.585 1612.74,426.918 1618,391.5C 1624.65,375.208 1636.81,366.041 1654.5,364C 1672.5,363.5 1690.5,363.333 1708.5,363.5C 1711.8,334.137 1698.8,319.804 1669.5,320.5C 1657.16,321.089 1644.82,321.755 1632.5,322.5C 1632.5,318.167 1632.5,313.833 1632.5,309.5C 1638.01,309.125 1643.34,308.458 1648.5,307.5 Z M 1655.5,375.5 C 1673.17,375.5 1690.83,375.5 1708.5,375.5C 1708.8,385.545 1708.3,395.545 1707,405.5C 1701.14,425.497 1687.64,435.497 1666.5,435.5C 1640.83,434.681 1629.33,421.681 1632,396.5C 1635.93,385.064 1643.77,378.064 1655.5,375.5 Z"/></g>
<g><path style="opacity:0.926" fill="#fefffe" d="M 2127.5,307.5 C 2138.17,307.333 2148.84,307.5 2159.5,308C 2183.99,309.493 2197.82,322.326 2201,346.5C 2201.5,378.832 2201.67,411.165 2201.5,443.5C 2197.5,443.5 2193.5,443.5 2189.5,443.5C 2189.67,435.826 2189.5,428.159 2189,420.5C 2179.52,438.834 2164.35,447.834 2143.5,447.5C 2110.08,446.59 2094.25,429.59 2096,396.5C 2100.8,376.986 2113.3,366.152 2133.5,364C 2151.5,363.5 2169.5,363.333 2187.5,363.5C 2190.8,334.137 2177.8,319.804 2148.5,320.5C 2136.16,321.089 2123.82,321.755 2111.5,322.5C 2111.5,318.167 2111.5,313.833 2111.5,309.5C 2117.01,309.125 2122.34,308.458 2127.5,307.5 Z M 2134.5,375.5 C 2152.17,375.5 2169.83,375.5 2187.5,375.5C 2187.8,385.545 2187.3,395.545 2186,405.5C 2180.14,425.497 2166.64,435.497 2145.5,435.5C 2119.83,434.681 2108.33,421.681 2111,396.5C 2114.93,385.064 2122.77,378.064 2134.5,375.5 Z"/></g>
<g><path style="opacity:0.936" fill="#fefffe" d="M 2306.5,307.5 C 2311.17,307.5 2315.83,307.5 2320.5,307.5C 2320.5,311.833 2320.5,316.167 2320.5,320.5C 2305.51,319.164 2291.84,322.664 2279.5,331C 2270.72,339.977 2266.22,350.811 2266,363.5C 2265.5,390.165 2265.33,416.831 2265.5,443.5C 2260.83,443.5 2256.17,443.5 2251.5,443.5C 2251.5,398.5 2251.5,353.5 2251.5,308.5C 2255.5,308.5 2259.5,308.5 2263.5,308.5C 2263.33,318.506 2263.5,328.506 2264,338.5C 2271.51,318.998 2285.68,308.664 2306.5,307.5 Z"/></g>
<g><path style="opacity:0.925" fill="#fefffe" d="M 2372.5,307.5 C 2383.17,307.333 2393.84,307.5 2404.5,308C 2428.99,309.493 2442.82,322.326 2446,346.5C 2446.5,378.832 2446.67,411.165 2446.5,443.5C 2442.5,443.5 2438.5,443.5 2434.5,443.5C 2434.67,435.826 2434.5,428.159 2434,420.5C 2424.38,438.984 2409.05,447.984 2388,447.5C 2354.85,446.354 2339.18,429.354 2341,396.5C 2345.8,376.986 2358.3,366.152 2378.5,364C 2396.5,363.5 2414.5,363.333 2432.5,363.5C 2435.8,334.137 2422.8,319.804 2393.5,320.5C 2381.16,321.089 2368.82,321.755 2356.5,322.5C 2356.5,318.167 2356.5,313.833 2356.5,309.5C 2362.01,309.125 2367.34,308.458 2372.5,307.5 Z M 2379.5,375.5 C 2397.17,375.5 2414.83,375.5 2432.5,375.5C 2432.8,385.545 2432.3,395.545 2431,405.5C 2425.14,425.497 2411.64,435.497 2390.5,435.5C 2364.83,434.681 2353.33,421.681 2356,396.5C 2359.93,385.064 2367.77,378.064 2379.5,375.5 Z"/></g>
<g><path style="opacity:0.976" fill="#f13024" d="M 2491.5,417.5 C 2499.5,417.5 2507.5,417.5 2515.5,417.5C 2515.5,426.167 2515.5,434.833 2515.5,443.5C 2507.5,443.5 2499.5,443.5 2491.5,443.5C 2491.5,434.833 2491.5,426.167 2491.5,417.5 Z"/></g>
</svg>
