<svg width="107" height="12" viewBox="0 0 107 12" fill="none" xmlns="http://www.w3.org/2000/svg">
<path d="M3.312 9.204C2.416 9.204 1.712 9.016 1.2 8.64C0.696 8.256 0.432 7.728 0.408 7.056H1.908C1.932 7.28 2.056 7.484 2.28 7.668C2.504 7.852 2.856 7.944 3.336 7.944C3.736 7.944 4.052 7.872 4.284 7.728C4.524 7.584 4.644 7.388 4.644 7.14C4.644 6.924 4.552 6.752 4.368 6.624C4.192 6.496 3.888 6.412 3.456 6.372L2.88 6.312C2.152 6.232 1.592 6.024 1.2 5.688C0.808 5.352 0.612 4.904 0.612 4.344C0.612 3.896 0.724 3.52 0.948 3.216C1.172 2.912 1.48 2.684 1.872 2.532C2.272 2.372 2.728 2.292 3.24 2.292C4.04 2.292 4.688 2.468 5.184 2.82C5.68 3.172 5.94 3.688 5.964 4.368H4.464C4.448 4.144 4.336 3.952 4.128 3.792C3.92 3.632 3.62 3.552 3.228 3.552C2.876 3.552 2.604 3.62 2.412 3.756C2.22 3.892 2.124 4.068 2.124 4.284C2.124 4.492 2.2 4.652 2.352 4.764C2.512 4.876 2.768 4.952 3.12 4.992L3.696 5.052C4.464 5.132 5.064 5.344 5.496 5.688C5.936 6.032 6.156 6.496 6.156 7.08C6.156 7.512 6.036 7.888 5.796 8.208C5.564 8.52 5.236 8.764 4.812 8.94C4.388 9.116 3.888 9.204 3.312 9.204ZM11.4819 9V7.068H11.2059V4.92C11.2059 4.544 11.1139 4.264 10.9299 4.08C10.7459 3.896 10.4619 3.804 10.0779 3.804C9.87794 3.804 9.63794 3.808 9.35794 3.816C9.07794 3.824 8.79394 3.836 8.50594 3.852C8.22594 3.86 7.97394 3.872 7.74994 3.888V2.472C7.93394 2.456 8.14194 2.44 8.37394 2.424C8.60594 2.408 8.84194 2.4 9.08194 2.4C9.32994 2.392 9.56194 2.388 9.77794 2.388C10.4499 2.388 11.0059 2.476 11.4459 2.652C11.8939 2.828 12.2299 3.104 12.4539 3.48C12.6859 3.856 12.8019 4.348 12.8019 4.956V9H11.4819ZM9.38194 9.168C8.90994 9.168 8.49394 9.084 8.13394 8.916C7.78194 8.748 7.50594 8.508 7.30594 8.196C7.11394 7.884 7.01794 7.508 7.01794 7.068C7.01794 6.588 7.13394 6.196 7.36594 5.892C7.60594 5.588 7.93794 5.36 8.36194 5.208C8.79394 5.056 9.29794 4.98 9.87394 4.98H11.3859V5.976H9.84994C9.46594 5.976 9.16994 6.072 8.96194 6.264C8.76194 6.448 8.66194 6.688 8.66194 6.984C8.66194 7.28 8.76194 7.52 8.96194 7.704C9.16994 7.888 9.46594 7.98 9.84994 7.98C10.0819 7.98 10.2939 7.94 10.4859 7.86C10.6859 7.772 10.8499 7.628 10.9779 7.428C11.1139 7.22 11.1899 6.94 11.2059 6.588L11.6139 7.056C11.5739 7.512 11.4619 7.896 11.2779 8.208C11.1019 8.52 10.8539 8.76 10.5339 8.928C10.2219 9.088 9.83794 9.168 9.38194 9.168ZM17.2886 9.216C16.8326 9.216 16.4126 9.132 16.0286 8.964C15.6446 8.796 15.3126 8.56 15.0326 8.256C14.7526 7.952 14.5366 7.6 14.3846 7.2C14.2326 6.792 14.1566 6.352 14.1566 5.88V5.628C14.1566 5.164 14.2286 4.728 14.3726 4.32C14.5246 3.912 14.7326 3.556 14.9966 3.252C15.2686 2.948 15.5926 2.712 15.9686 2.544C16.3526 2.368 16.7766 2.28 17.2406 2.28C17.7526 2.28 18.2006 2.392 18.5846 2.616C18.9766 2.832 19.2886 3.16 19.5206 3.6C19.7526 4.04 19.8806 4.592 19.9046 5.256L19.4126 4.68V0.24H21.0806V9H19.7606V6.228H20.0486C20.0246 6.892 19.8886 7.448 19.6406 7.896C19.3926 8.336 19.0646 8.668 18.6566 8.892C18.2566 9.108 17.8006 9.216 17.2886 9.216ZM17.6606 7.812C17.9886 7.812 18.2886 7.74 18.5606 7.596C18.8326 7.444 19.0486 7.228 19.2086 6.948C19.3766 6.66 19.4606 6.324 19.4606 5.94V5.46C19.4606 5.076 19.3766 4.756 19.2086 4.5C19.0406 4.236 18.8206 4.036 18.5486 3.9C18.2766 3.756 17.9806 3.684 17.6606 3.684C17.3006 3.684 16.9806 3.772 16.7006 3.948C16.4286 4.116 16.2126 4.356 16.0526 4.668C15.9006 4.98 15.8246 5.344 15.8246 5.76C15.8246 6.176 15.9046 6.54 16.0646 6.852C16.2246 7.156 16.4406 7.392 16.7126 7.56C16.9926 7.728 17.3086 7.812 17.6606 7.812ZM25.8953 9.228C25.3353 9.228 24.8433 9.132 24.4193 8.94C24.0033 8.748 23.6553 8.492 23.3753 8.172C23.1033 7.844 22.8953 7.48 22.7513 7.08C22.6153 6.68 22.5473 6.272 22.5473 5.856V5.628C22.5473 5.196 22.6153 4.78 22.7513 4.38C22.8953 3.972 23.1033 3.612 23.3753 3.3C23.6553 2.98 23.9993 2.728 24.4073 2.544C24.8153 2.352 25.2873 2.256 25.8233 2.256C26.5273 2.256 27.1153 2.412 27.5873 2.724C28.0673 3.028 28.4273 3.432 28.6673 3.936C28.9073 4.432 29.0273 4.968 29.0273 5.544V6.144H23.2553V5.124H27.9833L27.4673 5.628C27.4673 5.212 27.4073 4.856 27.2873 4.56C27.1673 4.264 26.9833 4.036 26.7353 3.876C26.4953 3.716 26.1913 3.636 25.8233 3.636C25.4553 3.636 25.1433 3.72 24.8873 3.888C24.6313 4.056 24.4353 4.3 24.2993 4.62C24.1713 4.932 24.1073 5.308 24.1073 5.748C24.1073 6.156 24.1713 6.52 24.2993 6.84C24.4273 7.152 24.6233 7.4 24.8873 7.584C25.1513 7.76 25.4873 7.848 25.8953 7.848C26.3033 7.848 26.6353 7.768 26.8913 7.608C27.1473 7.44 27.3113 7.236 27.3833 6.996H28.9193C28.8233 7.444 28.6393 7.836 28.3672 8.172C28.0953 8.508 27.7473 8.768 27.3233 8.952C26.9073 9.136 26.4313 9.228 25.8953 9.228ZM33.3367 9.228C32.7767 9.228 32.2847 9.132 31.8607 8.94C31.4447 8.748 31.0967 8.492 30.8167 8.172C30.5447 7.844 30.3367 7.48 30.1927 7.08C30.0567 6.68 29.9887 6.272 29.9887 5.856V5.628C29.9887 5.196 30.0567 4.78 30.1927 4.38C30.3367 3.972 30.5447 3.612 30.8167 3.3C31.0967 2.98 31.4407 2.728 31.8487 2.544C32.2567 2.352 32.7287 2.256 33.2647 2.256C33.9687 2.256 34.5567 2.412 35.0287 2.724C35.5087 3.028 35.8687 3.432 36.1087 3.936C36.3487 4.432 36.4687 4.968 36.4687 5.544V6.144H30.6967V5.124H35.4247L34.9087 5.628C34.9087 5.212 34.8487 4.856 34.7287 4.56C34.6087 4.264 34.4247 4.036 34.1767 3.876C33.9367 3.716 33.6327 3.636 33.2647 3.636C32.8967 3.636 32.5847 3.72 32.3287 3.888C32.0727 4.056 31.8767 4.3 31.7407 4.62C31.6127 4.932 31.5487 5.308 31.5487 5.748C31.5487 6.156 31.6127 6.52 31.7407 6.84C31.8687 7.152 32.0647 7.4 32.3287 7.584C32.5927 7.76 32.9287 7.848 33.3367 7.848C33.7447 7.848 34.0767 7.768 34.3327 7.608C34.5887 7.44 34.7527 7.236 34.8247 6.996H36.3607C36.2647 7.444 36.0807 7.836 35.8087 8.172C35.5367 8.508 35.1887 8.768 34.7647 8.952C34.3487 9.136 33.8727 9.228 33.3367 9.228ZM37.8621 11.4V2.484H39.1821V5.292L38.9781 5.28C39.0101 4.616 39.1461 4.06 39.3861 3.612C39.6341 3.164 39.9621 2.832 40.3701 2.616C40.7781 2.392 41.2341 2.28 41.7381 2.28C42.2021 2.28 42.6181 2.364 42.9861 2.532C43.3621 2.7 43.6821 2.936 43.9461 3.24C44.2181 3.544 44.4261 3.9 44.5701 4.308C44.7141 4.708 44.7861 5.14 44.7861 5.604V5.856C44.7861 6.328 44.7141 6.768 44.5701 7.176C44.4341 7.576 44.2301 7.932 43.9581 8.244C43.6941 8.548 43.3741 8.788 42.9981 8.964C42.6221 9.132 42.2021 9.216 41.7381 9.216C41.2501 9.216 40.8021 9.116 40.3941 8.916C39.9941 8.708 39.6701 8.392 39.4221 7.968C39.1741 7.536 39.0341 6.98 39.0021 6.3L39.5301 7.104V11.4H37.8621ZM41.3181 7.812C41.6781 7.812 41.9901 7.724 42.2541 7.548C42.5261 7.372 42.7381 7.128 42.8901 6.816C43.0421 6.496 43.1181 6.136 43.1181 5.736C43.1181 5.32 43.0421 4.96 42.8901 4.656C42.7381 4.352 42.5261 4.116 42.2541 3.948C41.9901 3.772 41.6781 3.684 41.3181 3.684C40.9901 3.684 40.6861 3.756 40.4061 3.9C40.1341 4.044 39.9101 4.256 39.7341 4.536C39.5661 4.816 39.4821 5.152 39.4821 5.544V6.024C39.4821 6.4 39.5701 6.72 39.7461 6.984C39.9221 7.248 40.1501 7.452 40.4301 7.596C40.7101 7.74 41.0061 7.812 41.3181 7.812ZM50.2007 9V7.068H49.9247V4.92C49.9247 4.544 49.8327 4.264 49.6487 4.08C49.4647 3.896 49.1807 3.804 48.7967 3.804C48.5967 3.804 48.3567 3.808 48.0767 3.816C47.7967 3.824 47.5127 3.836 47.2247 3.852C46.9447 3.86 46.6927 3.872 46.4687 3.888V2.472C46.6527 2.456 46.8607 2.44 47.0927 2.424C47.3247 2.408 47.5607 2.4 47.8007 2.4C48.0487 2.392 48.2807 2.388 48.4967 2.388C49.1687 2.388 49.7247 2.476 50.1647 2.652C50.6127 2.828 50.9487 3.104 51.1727 3.48C51.4047 3.856 51.5207 4.348 51.5207 4.956V9H50.2007ZM48.1007 9.168C47.6287 9.168 47.2127 9.084 46.8527 8.916C46.5007 8.748 46.2247 8.508 46.0247 8.196C45.8327 7.884 45.7367 7.508 45.7367 7.068C45.7367 6.588 45.8527 6.196 46.0847 5.892C46.3247 5.588 46.6567 5.36 47.0807 5.208C47.5127 5.056 48.0167 4.98 48.5927 4.98H50.1047V5.976H48.5687C48.1847 5.976 47.8887 6.072 47.6807 6.264C47.4807 6.448 47.3807 6.688 47.3807 6.984C47.3807 7.28 47.4807 7.52 47.6807 7.704C47.8887 7.888 48.1847 7.98 48.5687 7.98C48.8007 7.98 49.0127 7.94 49.2047 7.86C49.4047 7.772 49.5687 7.628 49.6967 7.428C49.8327 7.22 49.9087 6.94 49.9247 6.588L50.3327 7.056C50.2927 7.512 50.1807 7.896 49.9967 8.208C49.8207 8.52 49.5727 8.76 49.2527 8.928C48.9407 9.088 48.5567 9.168 48.1007 9.168ZM59.4698 9.204C58.8938 9.204 58.3898 9.072 57.9578 8.808C57.5338 8.536 57.2018 8.176 56.9618 7.728C56.7298 7.28 56.6098 6.784 56.6018 6.24H56.8298V9H56.3258V0.24H56.9618V4.728L56.6618 5.484C56.6778 4.884 56.8018 4.364 57.0338 3.924C57.2738 3.476 57.6058 3.128 58.0298 2.88C58.4538 2.632 58.9458 2.508 59.5058 2.508C59.9778 2.508 60.4018 2.6 60.7778 2.784C61.1538 2.96 61.4698 3.204 61.7258 3.516C61.9898 3.82 62.1898 4.168 62.3258 4.56C62.4618 4.944 62.5298 5.352 62.5298 5.784V5.904C62.5298 6.32 62.4618 6.724 62.3258 7.116C62.1978 7.5 62.0018 7.852 61.7378 8.172C61.4738 8.484 61.1498 8.736 60.7658 8.928C60.3898 9.112 59.9578 9.204 59.4698 9.204ZM59.4098 8.628C59.9378 8.628 60.3858 8.5 60.7538 8.244C61.1298 7.98 61.4138 7.636 61.6058 7.212C61.7978 6.788 61.8938 6.332 61.8938 5.844C61.8938 5.332 61.7938 4.868 61.5938 4.452C61.3938 4.028 61.1098 3.696 60.7418 3.456C60.3738 3.208 59.9298 3.084 59.4098 3.084C58.9298 3.084 58.5018 3.192 58.1258 3.408C57.7578 3.616 57.4658 3.908 57.2498 4.284C57.0338 4.652 56.9258 5.076 56.9258 5.556V6.168C56.9258 6.624 57.0298 7.04 57.2378 7.416C57.4538 7.784 57.7458 8.08 58.1138 8.304C58.4898 8.52 58.9218 8.628 59.4098 8.628ZM68.3224 9V7.116H68.2024V4.8C68.2024 4.296 68.0704 3.908 67.8064 3.636C67.5424 3.356 67.1064 3.216 66.4984 3.216C66.2824 3.216 66.0624 3.224 65.8384 3.24C65.6144 3.248 65.4024 3.26 65.2024 3.276C65.0024 3.284 64.8224 3.3 64.6624 3.324V2.748C64.8224 2.724 64.9904 2.704 65.1664 2.688C65.3504 2.672 65.5344 2.66 65.7184 2.652C65.9024 2.644 66.0784 2.64 66.2464 2.64C66.8784 2.64 67.3824 2.724 67.7584 2.892C68.1344 3.052 68.4064 3.3 68.5744 3.636C68.7424 3.964 68.8264 4.384 68.8264 4.896V9H68.3224ZM66.1264 9.168C65.7024 9.168 65.3224 9.092 64.9864 8.94C64.6504 8.788 64.3824 8.564 64.1824 8.268C63.9904 7.972 63.8944 7.612 63.8944 7.188C63.8944 6.78 63.9864 6.432 64.1704 6.144C64.3624 5.856 64.6344 5.636 64.9864 5.484C65.3464 5.332 65.7784 5.256 66.2824 5.256H68.2624V5.772H66.2224C65.6784 5.772 65.2584 5.904 64.9624 6.168C64.6744 6.424 64.5304 6.764 64.5304 7.188C64.5304 7.636 64.6864 7.992 64.9984 8.256C65.3104 8.512 65.7184 8.64 66.2224 8.64C66.5344 8.64 66.8384 8.58 67.1344 8.46C67.4304 8.34 67.6784 8.14 67.8784 7.86C68.0784 7.572 68.1864 7.188 68.2024 6.708L68.4424 6.984C68.4184 7.472 68.2984 7.88 68.0824 8.208C67.8744 8.528 67.6024 8.768 67.2664 8.928C66.9304 9.088 66.5504 9.168 66.1264 9.168ZM71.2087 9V2.7H71.7127V5.28H71.5687C71.5687 4.728 71.6567 4.248 71.8327 3.84C72.0167 3.424 72.2847 3.104 72.6367 2.88C72.9967 2.648 73.4407 2.532 73.9687 2.532H74.0047C74.7967 2.532 75.3927 2.78 75.7927 3.276C76.1927 3.764 76.3927 4.432 76.3927 5.28V9H75.7447V5.136C75.7447 4.536 75.5807 4.052 75.2527 3.684C74.9327 3.308 74.4687 3.12 73.8607 3.12C73.2447 3.12 72.7527 3.312 72.3847 3.696C72.0247 4.072 71.8447 4.572 71.8447 5.196V9H71.2087ZM81.311 9.204C80.839 9.204 80.411 9.116 80.027 8.94C79.651 8.756 79.331 8.512 79.067 8.208C78.803 7.896 78.599 7.544 78.455 7.152C78.319 6.76 78.251 6.348 78.251 5.916V5.796C78.251 5.38 78.319 4.98 78.455 4.596C78.591 4.204 78.787 3.852 79.043 3.54C79.307 3.22 79.627 2.968 80.003 2.784C80.379 2.6 80.811 2.508 81.299 2.508C81.867 2.508 82.359 2.636 82.775 2.892C83.199 3.148 83.527 3.5 83.759 3.948C83.999 4.388 84.127 4.892 84.143 5.46L83.819 4.752V0.24H84.455V9H83.951V6.204H84.191C84.175 6.804 84.043 7.332 83.795 7.788C83.547 8.236 83.207 8.584 82.775 8.832C82.351 9.08 81.863 9.204 81.311 9.204ZM81.371 8.628C81.859 8.628 82.287 8.52 82.655 8.304C83.031 8.088 83.323 7.796 83.531 7.428C83.747 7.052 83.855 6.624 83.855 6.144V5.52C83.855 5.064 83.747 4.652 83.531 4.284C83.323 3.916 83.031 3.624 82.655 3.408C82.287 3.192 81.859 3.084 81.371 3.084C80.843 3.084 80.395 3.212 80.027 3.468C79.659 3.724 79.375 4.064 79.175 4.488C78.983 4.904 78.887 5.36 78.887 5.856C78.887 6.368 78.987 6.836 79.187 7.26C79.387 7.676 79.671 8.008 80.039 8.256C80.415 8.504 80.859 8.628 81.371 8.628ZM90.7755 9V7.116H90.6555V4.8C90.6555 4.296 90.5235 3.908 90.2595 3.636C89.9955 3.356 89.5595 3.216 88.9515 3.216C88.7355 3.216 88.5155 3.224 88.2915 3.24C88.0675 3.248 87.8555 3.26 87.6555 3.276C87.4555 3.284 87.2755 3.3 87.1155 3.324V2.748C87.2755 2.724 87.4435 2.704 87.6195 2.688C87.8035 2.672 87.9875 2.66 88.1715 2.652C88.3555 2.644 88.5315 2.64 88.6995 2.64C89.3315 2.64 89.8355 2.724 90.2115 2.892C90.5875 3.052 90.8595 3.3 91.0275 3.636C91.1955 3.964 91.2795 4.384 91.2795 4.896V9H90.7755ZM88.5795 9.168C88.1555 9.168 87.7755 9.092 87.4395 8.94C87.1035 8.788 86.8355 8.564 86.6355 8.268C86.4435 7.972 86.3475 7.612 86.3475 7.188C86.3475 6.78 86.4395 6.432 86.6235 6.144C86.8155 5.856 87.0875 5.636 87.4395 5.484C87.7995 5.332 88.2315 5.256 88.7355 5.256H90.7155V5.772H88.6755C88.1315 5.772 87.7115 5.904 87.4155 6.168C87.1275 6.424 86.9835 6.764 86.9835 7.188C86.9835 7.636 87.1395 7.992 87.4515 8.256C87.7635 8.512 88.1715 8.64 88.6755 8.64C88.9875 8.64 89.2915 8.58 89.5875 8.46C89.8835 8.34 90.1315 8.14 90.3315 7.86C90.5315 7.572 90.6395 7.188 90.6555 6.708L90.8955 6.984C90.8715 7.472 90.7515 7.88 90.5355 8.208C90.3275 8.528 90.0555 8.768 89.7195 8.928C89.3835 9.088 89.0035 9.168 88.5795 9.168ZM93.6618 9V2.7H94.1658V5.364H94.0698C94.0698 4.452 94.2738 3.772 94.6818 3.324C95.0898 2.876 95.7498 2.652 96.6618 2.652H96.8778V3.228H96.5418C95.7978 3.228 95.2378 3.42 94.8618 3.804C94.4858 4.18 94.2978 4.736 94.2978 5.472V9H93.6618ZM102.26 9V7.116H102.14V4.8C102.14 4.296 102.008 3.908 101.744 3.636C101.48 3.356 101.044 3.216 100.436 3.216C100.22 3.216 99.9999 3.224 99.7759 3.24C99.5519 3.248 99.3399 3.26 99.1399 3.276C98.9399 3.284 98.7599 3.3 98.5999 3.324V2.748C98.7599 2.724 98.9279 2.704 99.1039 2.688C99.2879 2.672 99.4719 2.66 99.6559 2.652C99.8399 2.644 100.016 2.64 100.184 2.64C100.816 2.64 101.32 2.724 101.696 2.892C102.072 3.052 102.344 3.3 102.512 3.636C102.68 3.964 102.764 4.384 102.764 4.896V9H102.26ZM100.064 9.168C99.6399 9.168 99.2599 9.092 98.9239 8.94C98.5879 8.788 98.3199 8.564 98.1199 8.268C97.9279 7.972 97.8319 7.612 97.8319 7.188C97.8319 6.78 97.9239 6.432 98.1079 6.144C98.2999 5.856 98.5719 5.636 98.9239 5.484C99.2839 5.332 99.7159 5.256 100.22 5.256H102.2V5.772H100.16C99.6159 5.772 99.1959 5.904 98.8999 6.168C98.6119 6.424 98.4679 6.764 98.4679 7.188C98.4679 7.636 98.6239 7.992 98.9359 8.256C99.2479 8.512 99.6559 8.64 100.16 8.64C100.472 8.64 100.776 8.58 101.072 8.46C101.368 8.34 101.616 8.14 101.816 7.86C102.016 7.572 102.124 7.188 102.14 6.708L102.38 6.984C102.356 7.472 102.236 7.88 102.02 8.208C101.812 8.528 101.54 8.768 101.204 8.928C100.868 9.088 100.488 9.168 100.064 9.168Z" fill="white"/>
<path d="M104.786 9V7.536H106.178V9H104.786Z" fill="#FF4A17"/>
</svg>
