<svg width="36" height="23" viewBox="0 0 36 23" fill="none" xmlns="http://www.w3.org/2000/svg">
<path d="M30.8623 16.729C30.7113 16.7247 30.5951 16.7607 30.523 16.5975C30.1461 15.7434 29.554 15.5257 28.9881 15.2523C27.3159 14.4442 25.6074 14.4155 23.8974 14.3981C20.4742 14.3633 17.0779 14.7697 13.6884 15.318C12.0746 15.5789 10.4698 15.9245 8.87202 16.3233C7.27465 16.7221 5.68549 17.195 4.13489 17.9075C3.87793 18.0257 3.61531 18.1596 3.56271 17.4984C3.54075 17.2216 3.56079 17.0452 3.76834 16.9537C5.02857 16.396 6.31003 15.9686 7.59824 15.5862C9.72956 14.9541 11.8835 14.5099 14.0469 14.1858C17.7242 13.6349 21.4046 13.1367 25.1249 13.3673C26.4984 13.4524 27.8573 13.6288 29.1872 14.2793C29.7175 14.5385 30.2417 14.8327 30.6566 15.478C30.8112 15.7182 30.933 15.9813 31.0167 16.3011C31.1113 16.6615 31.0201 16.7518 30.8627 16.7297L30.8623 16.729Z" fill="#FF4A17"/>
<path d="M3.324 11.152C4.14 11.272 5.628 11.416 6.492 12.064C6.912 11.932 7.332 11.824 7.752 11.728C8.868 11.476 9.264 11.452 9.372 11.536C9.432 11.596 9.42 11.608 9.336 11.632L7.86 12.04L6.804 12.352C7.032 12.616 7.164 12.94 7.164 13.348C7.164 14.776 5.292 15.82 3.564 16.108C3.396 16.132 3.216 16.156 3.024 16.156C2.352 16.156 1.656 15.94 1.656 15.22C1.68 14.848 1.932 14.464 2.34 14.104C3.204 13.324 4.584 12.676 6.048 12.196C5.34 11.752 4.212 11.596 3.372 11.476C2.208 11.32 0.804 10.984 0.492 9.976C0.408 9.724 0.372 9.472 0.372 9.232C0.372 7.96 1.38 6.82 2.496 6.064C3.408 5.464 4.524 5.032 5.532 5.032C6.132 5.032 6.696 5.188 7.14 5.548C7.44 5.848 7.56 6.172 7.56 6.532C7.56 6.988 7.356 7.504 7.08 8.056C6.876 8.452 6.564 8.56 6.684 8.248C6.96 7.684 7.164 7.084 7.164 6.58C7.164 6.244 7.08 5.956 6.864 5.752C6.588 5.536 6.228 5.44 5.82 5.44C4.8 5.44 3.528 6.016 2.844 6.484C1.62 7.324 0.78 8.32 0.78 9.388C0.78 9.568 0.804 9.736 0.852 9.916C1.056 10.684 2.268 11.008 3.324 11.152ZM6.72 13.288C6.72 12.964 6.6 12.7 6.408 12.484C4.584 13.096 3.408 13.732 2.688 14.368C2.208 14.788 2.004 15.124 2.004 15.376C2.004 15.688 2.34 15.856 2.844 15.856C3.036 15.856 3.252 15.832 3.492 15.784C4.836 15.52 6.648 14.632 6.72 13.288ZM9.33984 12.724H9.20784C9.19584 12.724 9.17184 12.724 9.13584 12.712C9.11184 12.712 9.03984 12.676 8.97984 12.58C8.93184 12.472 8.96784 12.412 8.97984 12.388C8.97984 12.376 9.00384 12.364 9.01584 12.364L9.02784 12.352C9.51984 12.064 10.1918 11.716 10.6958 11.284L10.7678 11.224L10.2398 11.284C9.85584 11.332 9.48384 11.368 9.12384 11.38C9.03984 11.38 8.94384 11.308 8.90784 11.212C8.85984 11.104 8.88384 11.02 8.97984 11.02C9.68784 10.996 10.4558 10.876 11.2238 10.792C11.3918 10.768 11.5718 10.984 11.4878 11.104C11.1158 11.572 10.5038 11.98 9.95184 12.292L9.92784 12.304H10.0478C10.2398 12.292 10.4558 12.292 10.6718 12.292C10.9958 12.292 11.3198 12.304 11.6078 12.364C11.7278 12.388 11.8118 12.484 11.8358 12.58C11.8478 12.676 11.7878 12.736 11.6798 12.724C11.4278 12.664 11.0798 12.64 10.7678 12.64C10.5758 12.64 10.3838 12.652 10.2158 12.664L9.55584 12.7C9.45984 12.712 9.41184 12.724 9.33984 12.724ZM15.9969 15.352C15.8649 15.316 15.7329 15.22 15.6489 15.124C15.4809 14.932 15.3849 14.656 15.3369 14.392C15.2769 14.104 15.2289 13.732 15.2169 13.324C15.1929 12.988 15.1809 12.616 15.1809 12.232C15.1809 11.92 15.1929 11.584 15.1929 11.26V10.828C14.9409 11.5 14.4489 12.592 13.6089 12.652C13.3809 12.652 13.1529 12.616 12.8769 12.412C12.5889 12.184 12.4689 11.92 12.4689 11.668C12.4689 11.44 12.5649 11.212 12.7209 11.056C12.9609 10.828 13.3089 10.66 13.8249 10.66C14.0649 10.66 14.3049 10.684 14.6289 10.768L14.7249 10.804C14.9769 10.144 15.1329 9.532 15.2769 8.896L15.3009 8.464C15.3849 7.444 15.6129 5.728 15.6249 5.704C15.6609 5.524 16.0569 5.74 16.0809 5.92C16.0689 6.46 15.9369 7.876 15.8769 8.44C15.8529 8.68 15.7569 9.016 15.7449 9.22C15.6969 9.82 15.6729 10.288 15.6609 10.744C15.6369 11.308 15.6249 11.872 15.6249 12.412C15.6249 12.808 15.6249 13.18 15.6609 13.528C15.6729 13.924 15.7089 14.284 15.7689 14.56C15.8409 14.812 15.8769 14.956 15.9129 15.016L15.9369 15.04H15.9489C16.0209 15.076 16.1169 15.16 16.1409 15.232C16.1769 15.328 16.1289 15.376 15.9969 15.352ZM13.3569 12.328C13.9449 12.268 14.3289 11.608 14.5809 11.104L14.5929 11.08C14.4129 11.056 14.2449 11.044 14.1009 11.044C13.5849 11.044 13.2969 11.176 13.1169 11.368C12.9609 11.536 12.9009 11.716 12.9009 11.872C12.9009 12.028 12.9609 12.16 13.0449 12.22C13.1289 12.292 13.2249 12.328 13.3569 12.328ZM21.8848 12.892C21.3328 12.916 20.5768 12.82 20.2048 12.388C19.6888 12.784 18.9808 13.036 18.3568 12.988C17.6368 12.928 16.8088 12.64 16.9168 11.656C16.9768 11.152 17.3848 10.696 17.9488 10.744C18.3088 10.792 18.5728 11.164 18.4288 11.476C18.2248 11.812 17.7088 12.028 17.3128 11.98C17.3128 12.196 17.4328 12.604 17.8288 12.652C18.6328 12.76 19.4368 12.436 20.0368 12.1C19.9888 11.992 19.9648 11.86 19.9648 11.704C19.9648 11.176 20.2168 10.612 20.8048 10.588C21.1768 10.588 21.4528 10.828 21.3688 11.224C21.2848 11.632 20.8768 11.86 20.5168 12.124C20.5528 12.352 20.8648 12.604 21.2848 12.604C22.4128 12.604 23.2528 11.764 23.7568 11.236C24.0328 10.948 23.9848 11.224 23.8168 11.56C23.4808 12.256 22.7128 12.844 21.8848 12.892ZM20.9968 10.996C20.7448 10.744 20.3248 11.296 20.3968 11.788C20.8888 11.44 21.1288 11.128 20.9968 10.996ZM18.0928 11.14C17.8648 10.876 17.3368 11.428 17.3248 11.704C17.8288 11.56 18.1768 11.296 18.0928 11.14ZM23.8677 16.9C23.8197 16.396 23.7957 15.7 23.7597 15.052C23.7597 12.328 23.7837 10.276 23.8797 9.604C23.8917 9.52 23.9997 9.52 24.1077 9.58C24.2277 9.64 24.3117 9.748 24.2997 9.832C24.2757 10.132 24.2517 10.696 24.2157 11.512C24.5277 11.032 24.8997 10.78 25.2477 10.684C25.7277 10.552 26.4837 10.804 26.3997 11.476C26.3757 11.752 26.2077 12.04 26.0397 12.244C26.7957 12.088 27.7917 11.5 28.2117 11.128C28.3557 11.02 28.2117 11.44 28.0917 11.572C27.4797 12.196 26.5557 12.676 25.6437 12.64H25.5837C25.1877 12.748 24.6957 12.628 24.4797 12.496L24.3837 12.436C24.2517 12.988 24.2277 13.792 24.1917 15.04C24.2157 15.76 24.2157 16.444 24.2997 17.044C24.2877 17.248 23.8917 17.128 23.8677 16.9ZM25.3077 12.28C25.7277 12.16 26.2557 11.26 25.8717 11.032C25.3317 10.72 24.4797 11.788 24.4077 12.124V12.16C24.5397 12.232 25.1157 12.256 25.3077 12.28ZM27.9422 12.532C27.7022 12.352 27.5822 12.124 27.5822 11.872C27.5822 11.608 27.7142 11.344 28.0142 11.14C28.3382 10.924 28.7462 10.816 29.1662 10.816C29.5022 10.816 29.8382 10.888 30.1382 11.02H30.1502L30.3542 10.744C30.4262 10.612 30.8342 10.876 30.7502 11.02C30.6902 11.2 30.5822 11.416 30.5582 11.644C30.5462 11.848 30.6062 12.088 30.8222 12.148C31.4342 12.268 32.4662 11.656 32.8982 11.176C33.1022 10.972 33.2822 11.272 32.6222 11.932C32.3222 12.232 31.4942 12.616 30.9902 12.496C30.5942 12.4 30.2942 12.172 30.1382 11.74C29.8022 12.04 29.0102 12.652 28.3742 12.652C28.2182 12.652 28.0742 12.616 27.9422 12.532ZM28.1582 12.268C28.7342 12.196 29.5142 11.704 29.9342 11.26C29.8142 11.224 29.6462 11.2 29.4662 11.2C28.8662 11.2 28.0742 11.428 27.9422 11.98C27.9062 12.124 27.9782 12.256 28.1582 12.268Z" fill="white"/>
<path d="M33.7909 12.616C33.7069 12.508 33.7429 12.328 33.8749 12.22C34.0069 12.112 34.1749 12.112 34.2589 12.22C34.3429 12.328 34.3069 12.508 34.1749 12.616C34.0429 12.724 33.8749 12.724 33.7909 12.616Z" fill="#FF4A17"/>
</svg>
