<?xml version="1.0" encoding="UTF-8"?>
<svg id="Layer_2" data-name="Layer 2" xmlns="http://www.w3.org/2000/svg" viewBox="0 0 704.76 64.47">
  <defs>
    <style>
      .cls-1 {
        fill: #ff4a17;
      }
    </style>
  </defs>
  <g id="Layer_1-2" data-name="Layer 1">
    <path class="cls-1" d="M699.64,60.02c-3.86-.16-6.87,.35-8.56-2.32-8.84-13.98-23.79-17.84-38.02-22.58-42.04-14.01-85.75-15.49-129.51-16.79-87.6-2.6-174.93,1.92-262.22,8.73-41.56,3.24-82.97,7.85-124.25,13.32-41.27,5.47-82.4,12.14-122.77,22.69-6.69,1.75-13.54,3.75-14.26-6.93-.3-4.47,.38-7.3,5.78-8.65,32.79-8.23,66-14.35,99.34-19.74,55.16-8.91,110.72-14.78,166.41-18.71C366.24,2.36,460.93-3.47,555.95,2.46c35.08,2.19,69.7,5.84,103.13,17.11,13.33,4.49,26.47,9.54,36.48,20.18,3.73,3.96,6.6,8.27,8.44,13.47,2.08,5.86-.34,7.26-4.35,6.81Z"/>
  </g>
</svg>